<?xml version="1.0" encoding="utf-8"?>
<!-- Generator: Adobe Illustrator 15.0.2, SVG Export Plug-In . SVG Version: 6.00 Build 0)  -->
<!DOCTYPE svg PUBLIC "-//W3C//DTD SVG 1.1//EN" "http://www.w3.org/Graphics/SVG/1.1/DTD/svg11.dtd">
<svg version="1.1" id="Layer_1" xmlns="http://www.w3.org/2000/svg" xmlns:xlink="http://www.w3.org/1999/xlink" x="0px" y="0px"
	 width="464.981px" height="472.999px" viewBox="0 0 464.981 472.999" enable-background="new 0 0 464.981 472.999"
	 xml:space="preserve">
<g>
	<path fill-rule="evenodd" clip-rule="evenodd" fill="#413F8B" d="M306.553,166.75c-2.29,11.164,8.058,16.886,9,28
		c-2.628,7.588-12.255,4.307-17,1c0.383-5.619-2.435-10.277,0-15c-4.53-3.47-7.242-8.757-13-11c1.002-8.046-3.357-15.31,3-18
		C294.131,157.172,295.374,166.931,306.553,166.75z"/>
	<path fill-rule="evenodd" clip-rule="evenodd" fill="#413F8B" d="M107.553,116.75c4.228,1.772,11.035,0.965,16,2
		c-3.43,4.57-11.521,4.479-19,5c1.868,9.488,1.598,23.235-6,25c-4.104,0.953-10.696-8.369-17-7c-4.144,14.148-23.529,27.051-9,40
		c-7.975,7.359-19.657,11.009-20,26c-4.894,0.386-6.635,2.382-11,1c-10.606,13.106-19.675,24.494-16,50
		c-1.781,2.885-3.492,5.842-5,9c0.505,19.74,8.575,36.053,18,51c4.264,6.763,5.882,15.091,18,14c2.818,2.182,3.886,6.114,7,8
		c8.32-0.32,15.351,0.649,22,2c4.05,6.95,5.647,16.354,18,15c8.031,10.851-1.803,34.665,17,38c2.68,11.653,14.148,14.519,16,27
		c-2.279-0.279-3.759,0.241-4,2c0.534,13.133,9.271,18.063,20,21c10.447,9.22,24.092,15.242,40,19
		c-54.304-8.067-96.835-35.478-130-70c-38.874-40.465-66.885-101.366-62-180c3.736-60.144,31.626-109.626,68-146
		c37.222-37.222,87.373-64.002,146-68c33.265-2.269,75.221-0.238,92,18c-9.102,0.716-13.461-7.339-22-4
		c-0.848,8.848,3.956,12.044,6,18c-5.301,1.868-8.847,2.312-13-1c-2.955,4.324,6.228,9.49,5,12c-3,0-6,0-9,0
		c-2.931,0.847,0.598,3.22,0,5c-10.62-1.491-13.443,6.9-22,2c-1.95,2.383-0.812,7.855-4,9c-9.621-6.889-22.177-16.308-35-15
		c-6.247,0.637-9.795,5.249-17,8c-8.379,3.2-11.604,11.342-19,16c-7.935,4.997-23.658,8.268-20,21c2.232,2.166,6.528-2.089,10-2
		c-0.132,4.573-2.92,10.567-1,14c3.129,3.063,7.741-0.875,12,0c1.734-1.599,2.166-4.501,2-8c5.011-0.656,7.912-3.421,10-7
		c-6.727-14.348,12.993-16.983,21-23c-3.51,8.156-15.743,7.59-13,22c5.233,3.35,13.653-2.463,19,1c-5.103,2.564-16.221-0.888-18,5
		c-1.47,3.804,4.47,0.196,3,4c-3.181,1.529-4.399,0.351-8,0c-4.552,1.448-2.998,9.002-6,12c-6.116-1.974-13.099-0.124-18,2
		c-2.712-4.784-6.637-2.145-12-4c-0.495-6.162,6.495-4.838,6-11c-8.941-7.178-10.088,9.599-15,13c-12.632-2.299-13.189,7.478-22,9
		c5.134-7.03,2.825-11.466,4-24c3.323-4.532,4.969-5.214,6-11c-6-3.98-16.425,1.296-15,11c-5.062-2.682-11.576,0.814-15,3
		c0.237,4.468-1.599,6.988-4,11c11.571,5.558,13.783-6.874,20-10C117.964,103.828,112.97,110.5,107.553,116.75z M257.553,42.75
		c3.507,0.493,6.509,1.491,11,1c-3.027-4.771-4.145-10.732,1-14C262.83,19.126,259.267,36.188,257.553,42.75z M129.553,58.75
		c6.125-1.875,13.958-2.042,14-10C133.316,44.327,128.704,47.694,129.553,58.75z"/>
	<path fill-rule="evenodd" clip-rule="evenodd" fill="#413F8B" d="M229.553,237.75c-8.89-1.333-16.225-4.312-22,1
		c-12.225-4.663-26.068-1.8-31-13c-6.055-0.388-11.266,0.067-15,2c-1.307,2.359-0.422,6.911-2,9c-17.913-1.42-18.792-19.875-36-22
		c2.15-7.517,6.36-12.974,8-21c-13.599-4.342-37.626-7.197-53-4c-0.616-2.717-1.983-4.683-4-6c19.598,4.194,19.199-17.379,36-19
		c2.651-1.015,2.709-4.624,5-6c4.63-0.63,7.218,0.782,9,3c2.993-2.34,5.82-4.847,11-5c-4.475,19.757,21.854,20.342,12,36
		c-3.777-1.223-5.646-4.354-11-4c-2.715-0.715,0.715,4.715-2,4c2.428,2.572,5.276,4.724,8,7c2.78-0.553,2.8-3.867,4-6
		c1.023,0.977,2.023,1.977,3,3c3.385-3.281,8.277-5.056,8-12c0.229-4.278,2.976,2.226,6-1c-3.252-9.84-25.027-21.815-12-32
		c2.999,10.334,10.988,15.679,16,24c-4.163,11.351,3.585,22.261,8,31c4.583,0.583,4.662-3.338,7-5c15.688,4.657,4.838-7.604,0-14
		c1.208-3.458,5.04-4.293,9-5c4.914,10.752,3.846,27.487,19,28c6.396-4.783,18.594,1.789,28-3
		C237.265,219.463,235.369,230.566,229.553,237.75z M123.553,183.75c4.997-2.003,9.504-4.496,8-13
		C123.327,169.524,124.925,178.122,123.553,183.75z M178.553,213.75c4.037,1.629,9.598,1.735,13,4c-0.154-2.488,1.571-3.096,2-5
		c-3.651-2.015-7.964-3.369-13-4C180.124,210.655,178.399,211.263,178.553,213.75z M222.553,217.75c3.164-0.164,3.342,2.658,7,2
		c1.189-1.901,5.055-6.863,1-8C229.608,215.472,221.647,212.178,222.553,217.75z"/>
	<path fill-rule="evenodd" clip-rule="evenodd" fill="#40883C" d="M231.553,238.75c-0.38,4.081,3.568,10.063-1,15
		c-3.84-2.493-5.364-7.303-9-10c2.766,10.293,7.607,27.017,16,35c-3.653,8.202,4.28,12.895,8,17c-0.515,10.515,2.519,17.481,11,19
		c0.347,15.32,13.524,17.809,23,24c-2.782,5.514,4.239,7.008,6,11c14.076-1.924,23.832-8.168,36-12
		c-1.574,20.293-19.721,40.398-36,51c-10.621,6.917-22.498,16.019-28,27c3.637,1.608,1.047,4.662,2,8c1.237,4.33,5.512,8.614,5,12
		c-1.455,9.627-19.051,9.873-27,16c-0.723,3.056,1.022,3.645,1,6c-40.639,15.947-85.261-5.248-104-30c-0.145-2.812,2.449-2.884,5-3
		c-1.042-14.624-13.766-17.567-17-30c-6.735-4.73-13.405-7.814-14-17c-0.195-3.014,2.813-4.994,3-8c0.56-9.004-5.434-15.649-18-16
		c-0.318-14.349-14.01-15.323-28-16c-5.459-3.54-8.312-9.688-18-9c-6.833-9-18.493-28.906-23-44c-2.964-9.927-2.093-18.708,3-25
		c-3.569-24.236,5.885-35.448,14-48c5.196,0.529,8.014-1.319,12-2c2.885-11.781,9.146-20.188,20-24c1.854,2.813,3.313,6.021,7,7
		c15.963-7.258,31.624,2.882,48,1c-0.38,9.287-7.01,12.323-7,22c16.113,3.887,19.898,20.102,36,24c5.439-1.642,5.684-5.083,6-10
		c9.007-5.798,14.255,3.544,20,7c8.937-2.191,12.569,4.022,22,4c6.689-7.157,19.383,0.102,27-4
		C232.716,237.914,232.333,238.53,231.553,238.75z M220.553,405.75c1.893,1.774,6.604,0.729,10,1c-1.311-4.978,3.079-4.255,3-8
		c-2.417-1.917-8.036-0.631-12-1C220.007,399.205,220.672,402.87,220.553,405.75z M208.553,406.75c-1.99,2.343-2.304,6.363-2,11
		c3.296,1.731,7.272,8.024,11,6C212.257,420.379,209.346,414.625,208.553,406.75z M236.553,442.75c-0.15-6.516,0.016-13.349-4-16
		C233.226,432.745,234.53,438.107,236.553,442.75z"/>
	<path fill-rule="evenodd" clip-rule="evenodd" fill="#40883C" d="M263.553,27.75c2.09-0.423,2.648,0.686,4,1
		c-3.09,4.861-4.898,9.165-1,14c-3.469,0.802-3.844-1.489-7-1C260.787,36.984,261.695,31.893,263.553,27.75z"/>
	<path fill-rule="evenodd" clip-rule="evenodd" fill="#40883C" d="M133.553,47.75c2.451,0.883,3.669,2.997,8,2
		c0.111,5.778-6.049,5.285-10,7C131.234,52.764,131.499,49.362,133.553,47.75z"/>
	<path fill-rule="evenodd" clip-rule="evenodd" fill="#40883C" d="M118.553,93.75c-0.531,3.701-4.348,12.149-12,12
		c0.841-4.377,6.161-4.883,2-9C112.736,96.6,114.48,94.01,118.553,93.75z"/>
	<path fill-rule="evenodd" clip-rule="evenodd" fill="#40883C" d="M128.553,171.75c5.046,2.361-0.528,6.995-2,9
		C123.258,177.711,127.898,174.152,128.553,171.75z"/>
	<path fill-rule="evenodd" clip-rule="evenodd" fill="#40883C" d="M144.553,192.75c0.409,2.409-1.826,2.174-1,5
		c-3.04-0.96-3.983-4.017-7-5C137.94,188.394,141.72,192.651,144.553,192.75z"/>
	<path fill-rule="evenodd" clip-rule="evenodd" fill="#40883C" d="M190.553,214.75c-2.391-1.942-9.541,0.874-9-4
		C184.873,211.764,190.11,210.86,190.553,214.75z"/>
	<path fill-rule="evenodd" clip-rule="evenodd" fill="#40883C" d="M434.553,301.75c2.63,0.296,0.787-3.88,4-3
		c0.442,3.775-1.972,4.694-3,7c-1.086-0.247-0.679-1.988-2-2C433.39,302.587,433.774,301.971,434.553,301.75z"/>
	<path fill-rule="evenodd" clip-rule="evenodd" fill="#40883C" d="M276.553,453.75c2.297-2.921,7.067-3.977,3-8
		c7.584-6.754,23.715-10.279,29-16c4.475,0.032-2.19,2.94,0,7C298.599,443.13,295.296,456.161,276.553,453.75z"/>
	<path fill-rule="evenodd" clip-rule="evenodd" fill="#40883C" d="M303.553,11.75c95.839,32.83,165.331,105.998,164,236
		c-1.21-6.457-2.159-13.174-4-19c-2.007-0.34-3.129,0.205-3,2c-2.078-4.922-5.537-8.463-8-13c-14.513,17.309-21.4,48.063-17,76
		c-2.029,3.638-5.248,6.086-7,10c-5.13-15.536-15.292-26.041-18-44c-13.737,0.071-19.477-7.856-25-16
		c-12.28,3.825-35.497,16.843-44,1c-3.046,0.621-1.954,5.379-5,6c-14.833,1.167-24.655-2.679-27-14c-3.295,2.038-7.013,3.654-10,6
		c2.878,8.122,5.653,16.347,16,17c1.233,4.434,0.787,10.546,5,12c9.807-0.193,15.293-4.707,18-12c3.223,6.777,12.361,7.639,19,11
		c-2.66,14.34-12.084,21.916-17,34c-8.308,1.025-12.321,6.345-15,13c-15.66,3.006-23.798,13.535-39,17
		c-4.237-2.763-6.319-7.681-6-15c-2.372-6.961-10.637-8.029-11-17c-10.451-2.216-11.804-13.529-15-23c-4.52-3.231-8.425-9.737-13-16
		c-2.896-3.964-6.779-9.598-7-12c-0.768-8.335,6.975-16.255,6-27c0.306-2.031-2.889,0.205-3,1c-0.188-4.208,1.609-15.042,3-21
		c-8.138,4.247-15.617,0.89-23,1c-2.159,0.032-5.823,2.348-8,2c-13.903-2.221-9.311-17.124-17-27c-6.41-0.41-10.131,1.869-13,5
		c-0.971,8.971,7.692,8.308,9,15c-3.872,0.539-4.118-2.549-7-3c-3.421-0.087-0.579,6.087-4,6c-3.732-5.203-8.221-12.098-9-19
		c-0.33-2.926,1.64-6.168,1-9c-2.351-10.403-14.258-16.266-18-27c-4.976,0.024-5.229,4.771-8,7c1.084,11.916,9.885,16.115,14,25
		c-4.168,2.235-1.574,10.09-7,13c5.93-9.242-3.853-20.735-12-25c-0.564-4.564,1.772-6.228,1-11c-0.319-2.348-3.095-2.238-4-4
		c-4.192,1.141-8.57,2.096-11,5c-2.14-2.193-4.855-3.811-10-3c-8.463,9.203-21.635,13.699-28,25c-4.973,0.306-9.175-0.158-13-1
		c-10.629-13.078,6.72-21.696,9-36c5.077,2.256,9.787,4.88,14,8c9.111-3.465,14.696-15.723,11-26c16.007,0.34,23.558-7.775,32-15
		c8.079,0.746,12.2-2.467,16-6c1.485,7.407,10.384,1.402,12,8c5.982-2.018,12.28-3.72,21-3c4.035-1.299,2.22-8.446,5-11
		c5.064,1.484,13.231-2.386,11-8c6.082,0.082,12.597,0.597,15-3c-0.765-7.235-13.243-2.757-20-4c-1.21-12.21,10.841-11.159,14-19
		c-4.787-8.983-10.45,1.172-15,4c-6.918,4.3-17.403,4.207-12,19c-2.74,2.26-6.371,3.629-10,5c0,2,0,4,0,6
		c-3.977-0.31-5.023,2.31-9,2c-0.372-6.706,2.145-10.522,2-17c-4.365,0.302-6.823,2.51-10,4c-0.962-11.447,9.786-11.949,19-18
		c6.202-4.073,10.707-11.426,16-14c5.136-2.497,11.747-2.528,15-8c15.244-0.577,23.036,6.298,34,10c-2.986,6.589-10.411-0.156-15-1
		c-5.877,4.728,3.801,8.924,3,15c11.224,0.891,10.515-10.152,20-11c0.319-2.348,1.58-3.753,1-7c8.074,4.52,12.105-4.605,23-3
		c3.135-0.691,1.304-2.667,1-5c5.006-0.673,7.74,0.926,12,1c2.681-3.752-7.938-7.085-6-10c4.827-0.173,9.551-0.449,11-4
		c-0.815-6.518-6.287-8.38-6-16c9.015,0.318,12.694,5.973,23,5C311.354,15.283,306.465,14.505,303.553,11.75z M229.553,161.75
		c-3.925-3.041-3.265-5.803-3-9c-4.445,0.445-5.292-2.708-8-4c-7.519,7.172-18.063,19.642-13,33c13.98-2.096,28.161-6.363,39,1
		c8.619-2.384,21.248,0.129,17-13C250.231,167.429,242.69,153.312,229.553,161.75z M232.553,153.75c1.154,5.07,6.135,3.692,11,3
		c-0.826-2.826,1.409-2.591,1-5C240.304,147.612,236.913,152.498,232.553,153.75z M284.553,170.75c6.429,1.238,7.403,7.93,13,10
		c-2.554,4.934-0.198,12.589,1,17c6.727,3.325,15.885,4.311,19-3c-2.438-10.562-10.989-15.01-10-29
		c-12.158,0.825-11.948-10.719-19-15C280.586,153.001,285.507,162.062,284.553,170.75z"/>
	<path fill-rule="evenodd" clip-rule="evenodd" fill="#40883C" d="M131.553,82.75c-4.71,6.261-2.306,26.295-8,34
		c-3.977,0.31-5.023-2.31-9-2c4.168-10.089,13.242-15.698,10-28C125.734,84.265,130.883,85.747,131.553,82.75z"/>
	<path fill-rule="evenodd" clip-rule="evenodd" fill="#413F8B" d="M229.553,59.75c3.839,1.161,6.265,3.735,12,3
		c-0.98,4.02-5.526,4.474-8,7C234.002,64.634,229.694,64.276,229.553,59.75z"/>
	<path fill-rule="evenodd" clip-rule="evenodd" fill="#413F8B" d="M159.553,94.75c3.282,1.771-1.166,4.052-2,5
		C154.76,98.467,158.78,95.759,159.553,94.75z"/>
	<path fill-rule="evenodd" clip-rule="evenodd" fill="#413F8B" d="M218.553,150.75c2.305,1.028,3.225,3.442,7,3
		c-3.467,4.707,2.584,7.002,4,10c12.313-9.219,20.338,5.3,31,7c0,2.333,0,4.667,0,7c-4.905,3.308-10.935,0.173-16,4
		c-8.543-7.828-26.022-4.356-37-1C201.346,171.252,211.691,156.708,218.553,150.75z"/>
	<path fill-rule="evenodd" clip-rule="evenodd" fill="#413F8B" d="M242.553,155.75c-4.178-0.226-4.723,1.626-8,0
		c-0.092-3.759,5.011-2.323,6-5C242.74,150.897,242.701,153.27,242.553,155.75z"/>
	<path fill-rule="evenodd" clip-rule="evenodd" fill="#413F8B" d="M231.553,238.75c0.779-0.221,1.163-0.837,1-2
		c0.19-0.81,1.003-0.997,1-2c1.449,1.218,1.34,3.994,4,4c-0.777,2.223-2.101,3.899-2,7
		C233.312,244.326,233.645,240.326,231.553,238.75z"/>
	<path fill-rule="evenodd" clip-rule="evenodd" fill="#413F8B" d="M231.553,398.75c0.483,3.149-3.069,2.264-2,6
		c-2.667,0-5.333,0-8,0C219.823,397.687,226.144,398.674,231.553,398.75z"/>
	<path fill-rule="evenodd" clip-rule="evenodd" fill="#413F8B" d="M247.553,471.75c-6.348,1.664-19.652,1.664-26,0
		C230.22,471.75,238.886,471.75,247.553,471.75z"/>
	<path fill-rule="evenodd" clip-rule="evenodd" fill="#413F8B" d="M433.553,303.75c0,1.333,0,2.667,0,4c3.657-0.343,4.576-3.424,6-6
		c-7.713-23.213-0.314-60.816,12-79c5.174,1.827,5.589,8.412,7,14c2.688,0.688,1.933-2.067,3-3c9.95,41.916-3.196,78.387-21,112
		c-41.222,77.828-129.492,136.49-245,121c17.097-0.082,32.095-1.682,46-7c0.489-3.156-1.802-3.531-1-7
		c9.269-2.731,16.201-7.799,25-11c3.405-10.444-4.104-17.624-5-27c21.484-25.85,58.593-36.074,64-78
		c-13.126-1.391-24.088,7.861-36,11c-3.927-1.563-7.896-5.602-6-10c-9.687-6.313-22.833-9.167-24-24
		c-13.195-1.472-7.11-22.223-18-26c0.075-11.841-9.33-17.249-11-30c9.403-0.837,13.059,11.2,17,19c9.6,4.066,8.14,19.194,15,26
		c1.667,0,3.333,0,5,0c1.369,8.298,6.97,12.363,12,17c-0.969,8.636,3.007,12.327,5,18c17.906-3.094,28.089-13.911,44-19
		c3.673-0.66,2.455-6.211,5-8c15.725-6.942,21.611-23.722,28-40c-3.294-5.271-8.441-6.031-15-6c-3.029-4.21-3.784-8.7-3-12
		c-6.249,2.426-8.944,17.05-21,17c-2.646-2.354-2.23-7.77-4-11c-9.613-0.387-10.636-9.364-16-14c2.085-1.582,4.073-3.26,7-4
		c1.257,10.664,25.021,18.878,32,8c3.778,0.222,2.858,5.142,6,6c16.686,1.686,25.957-4.043,37-8c5.822,6.184,13.421,15.903,23,15
		c5.892,15.441,14.934,27.733,19,45c5.134,1.095,6.293-6.988,9-5C433.774,301.971,433.39,302.587,433.553,303.75z M281.553,440.75
		c-3.209,5.556-1.9,9.901-7,14c23.352,2.019,30.301-12.366,38-26c-3.101,0.34-4.777-2.315-7,0
		C300.549,435.747,291.773,438.97,281.553,440.75z"/>
	<path fill-rule="evenodd" clip-rule="evenodd" fill="#413F8B" d="M212.553,419.75c-1.875,1.157-6.42-3.541-5-9
		C209.007,413.963,209.273,418.364,212.553,419.75z"/>
	<path fill-rule="evenodd" clip-rule="evenodd" fill="#40883C" d="M230.553,211.75c4.055,1.137,0.189,6.099-1,8
		c-3.658,0.658-3.836-2.164-7-2C221.647,212.178,229.608,215.472,230.553,211.75z"/>
</g>
</svg>
