<?xml version="1.0" encoding="utf-8"?>
<!-- Generator: Adobe Illustrator 15.0.2, SVG Export Plug-In . SVG Version: 6.00 Build 0)  -->
<!DOCTYPE svg PUBLIC "-//W3C//DTD SVG 1.1//EN" "http://www.w3.org/Graphics/SVG/1.1/DTD/svg11.dtd">
<svg version="1.1" id="Layer_1" xmlns="http://www.w3.org/2000/svg" xmlns:xlink="http://www.w3.org/1999/xlink" x="0px" y="0px"
	 width="689.99px" height="563px" viewBox="-225.009 -90 689.99 563" enable-background="new -225.009 -90 689.99 563"
	 xml:space="preserve">
<g>
	<path fill="#413F8B" d="M306.553,166.75c-2.29,11.164,8.059,16.886,9,28c-2.629,7.588-12.256,4.307-17,1
		c0.383-5.619-2.436-10.277,0-15c-4.53-3.47-7.242-8.757-13-11c1.002-8.046-3.357-15.31,3-18
		C294.131,157.172,295.374,166.931,306.553,166.75z"/>
	<path fill="#413F8B" d="M107.553,116.75c4.228,1.772,11.035,0.965,16,2c-3.43,4.57-11.521,4.479-19,5
		c1.868,9.488,1.598,23.235-6,25c-4.104,0.953-10.696-8.369-17-7c-4.144,14.148-23.529,27.051-9,40
		c-7.975,7.359-19.657,11.009-20,26c-4.894,0.386-6.635,2.382-11,1c-10.606,13.106-19.675,24.494-16,50
		c-1.781,2.885-3.492,5.842-5,9c0.505,19.74,8.575,36.054,18,51c4.264,6.764,5.882,15.092,18,14c2.818,2.183,3.886,6.115,7,8
		c8.32-0.319,15.351,0.649,22,2c4.05,6.951,5.647,16.354,18,15c8.031,10.852-1.803,34.666,17,38c2.68,11.654,14.148,14.52,16,27
		c-2.279-0.279-3.759,0.242-4,2c0.534,13.133,9.271,18.063,20,21c10.447,9.221,24.092,15.242,40,19
		c-54.304-8.066-96.835-35.477-130-70c-38.874-40.465-66.885-101.365-62-180c3.736-60.144,31.626-109.626,68-146
		c37.222-37.222,87.373-64.002,146-68c33.265-2.269,75.221-0.238,92,18c-9.102,0.716-13.461-7.339-22-4
		c-0.848,8.848,3.955,12.044,6,18c-5.301,1.868-8.848,2.312-13-1c-2.955,4.324,6.229,9.49,5,12c-3,0-6,0-9,0
		c-2.932,0.847,0.598,3.22,0,5c-10.62-1.491-13.443,6.9-22,2c-1.95,2.383-0.813,7.855-4,9c-9.621-6.889-22.177-16.308-35-15
		c-6.247,0.637-9.795,5.249-17,8c-8.379,3.2-11.604,11.342-19,16c-7.935,4.997-23.658,8.268-20,21c2.232,2.166,6.528-2.089,10-2
		c-0.132,4.573-2.92,10.567-1,14c3.129,3.063,7.741-0.875,12,0c1.734-1.599,2.166-4.501,2-8c5.011-0.656,7.912-3.421,10-7
		c-6.727-14.348,12.993-16.983,21-23c-3.51,8.156-15.743,7.59-13,22c5.233,3.35,13.653-2.463,19,1c-5.103,2.564-16.221-0.888-18,5
		c-1.47,3.804,4.47,0.196,3,4c-3.181,1.529-4.399,0.351-8,0c-4.552,1.448-2.998,9.002-6,12c-6.116-1.974-13.099-0.124-18,2
		c-2.712-4.784-6.637-2.145-12-4c-0.495-6.162,6.495-4.838,6-11c-8.941-7.178-10.088,9.599-15,13c-12.632-2.299-13.189,7.478-22,9
		c5.134-7.03,2.825-11.466,4-24c3.323-4.532,4.969-5.214,6-11c-6-3.98-16.425,1.296-15,11c-5.062-2.682-11.576,0.814-15,3
		c0.237,4.468-1.599,6.988-4,11c11.571,5.558,13.783-6.874,20-10C117.964,103.828,112.97,110.5,107.553,116.75z M257.553,42.75
		c3.507,0.493,6.509,1.491,11,1c-3.027-4.771-4.145-10.732,1-14C262.831,19.126,259.267,36.188,257.553,42.75z M129.553,58.75
		c6.125-1.875,13.958-2.042,14-10C133.316,44.327,128.704,47.694,129.553,58.75z"/>
	<path fill="#413F8B" d="M229.553,237.75c-8.89-1.333-16.225-4.312-22,1c-12.225-4.663-26.068-1.799-31-13
		c-6.055-0.388-11.266,0.067-15,2c-1.307,2.359-0.422,6.911-2,9c-17.913-1.42-18.792-19.875-36-22c2.15-7.517,6.36-12.974,8-21
		c-13.599-4.342-37.626-7.197-53-4c-0.616-2.717-1.983-4.683-4-6c19.598,4.194,19.199-17.379,36-19c2.651-1.015,2.709-4.624,5-6
		c4.63-0.63,7.218,0.782,9,3c2.993-2.34,5.82-4.847,11-5c-4.475,19.757,21.854,20.342,12,36c-3.777-1.223-5.646-4.354-11-4
		c-2.715-0.715,0.715,4.715-2,4c2.428,2.572,5.276,4.724,8,7c2.78-0.553,2.8-3.867,4-6c1.023,0.977,2.023,1.977,3,3
		c3.385-3.281,8.277-5.056,8-12c0.229-4.278,2.976,2.226,6-1c-3.252-9.84-25.027-21.815-12-32c2.999,10.334,10.988,15.679,16,24
		c-4.163,11.351,3.585,22.261,8,31c4.583,0.583,4.662-3.338,7-5c15.688,4.657,4.838-7.604,0-14c1.208-3.458,5.04-4.293,9-5
		c4.914,10.752,3.846,27.487,19,28c6.396-4.783,18.594,1.789,28-3C237.265,219.463,235.37,230.566,229.553,237.75z M123.553,183.75
		c4.997-2.003,9.504-4.496,8-13C123.327,169.524,124.925,178.122,123.553,183.75z M178.553,213.75c4.037,1.629,9.598,1.735,13,4
		c-0.154-2.488,1.571-3.096,2-5c-3.651-2.015-7.964-3.369-13-4C180.124,210.655,178.399,211.263,178.553,213.75z M222.553,217.75
		c3.164-0.164,3.342,2.658,7,2c1.189-1.901,5.055-6.863,1-8C229.608,215.472,221.647,212.178,222.553,217.75z"/>
	<path fill="#40883C" d="M231.553,238.75c-0.38,4.082,3.568,10.063-1,15c-3.84-2.492-5.364-7.303-9-10
		c2.766,10.293,7.607,27.018,16,35c-3.653,8.203,4.279,12.896,8,17c-0.516,10.516,2.519,17.481,11,19
		c0.347,15.32,13.523,17.81,23,24c-2.782,5.515,4.238,7.008,6,11c14.076-1.924,23.832-8.168,36-12
		c-1.574,20.293-19.721,40.398-36,51c-10.621,6.918-22.498,16.02-28,27c3.637,1.609,1.047,4.662,2,8c1.236,4.33,5.512,8.615,5,12
		c-1.455,9.627-19.051,9.873-27,16c-0.723,3.057,1.021,3.645,1,6c-40.639,15.947-85.261-5.248-104-30c-0.145-2.813,2.449-2.883,5-3
		c-1.042-14.623-13.766-17.566-17-30c-6.735-4.729-13.405-7.813-14-17c-0.195-3.014,2.813-4.994,3-8c0.56-9.004-5.434-15.648-18-16
		c-0.318-14.349-14.01-15.322-28-16c-5.459-3.539-8.312-9.688-18-9c-6.833-9-18.493-28.906-23-44c-2.964-9.926-2.093-18.707,3-25
		c-3.569-24.235,5.885-35.448,14-48c5.196,0.529,8.014-1.319,12-2c2.885-11.781,9.146-20.188,20-24c1.854,2.813,3.313,6.021,7,7
		c15.963-7.258,31.624,2.882,48,1c-0.38,9.287-7.01,12.323-7,22c16.113,3.887,19.898,20.102,36,24c5.439-1.642,5.684-5.083,6-10
		c9.007-5.798,14.255,3.544,20,7c8.937-2.191,12.569,4.022,22,4c6.689-7.157,19.383,0.103,27-4
		C232.716,237.914,232.333,238.531,231.553,238.75z M220.553,405.75c1.893,1.775,6.604,0.729,10,1c-1.311-4.977,3.078-4.254,3-8
		c-2.417-1.916-8.036-0.631-12-1C220.007,399.205,220.672,402.871,220.553,405.75z M208.553,406.75c-1.99,2.344-2.304,6.363-2,11
		c3.296,1.732,7.272,8.025,11,6C212.257,420.378,209.346,414.625,208.553,406.75z M236.553,442.75c-0.15-6.516,0.016-13.348-4-16
		C233.226,432.746,234.53,438.107,236.553,442.75z"/>
	<path fill="#40883C" d="M263.553,27.75c2.09-0.423,2.648,0.686,4,1c-3.09,4.861-4.898,9.165-1,14c-3.469,0.802-3.844-1.489-7-1
		C260.788,36.984,261.695,31.893,263.553,27.75z"/>
	<path fill="#40883C" d="M133.553,47.75c2.451,0.883,3.669,2.997,8,2c0.111,5.778-6.049,5.285-10,7
		C131.234,52.764,131.499,49.362,133.553,47.75z"/>
	<path fill="#40883C" d="M118.553,93.75c-0.531,3.701-4.348,12.149-12,12c0.841-4.377,6.161-4.883,2-9
		C112.736,96.6,114.48,94.01,118.553,93.75z"/>
	<path fill="#40883C" d="M128.553,171.75c5.046,2.361-0.528,6.995-2,9C123.258,177.711,127.898,174.152,128.553,171.75z"/>
	<path fill="#40883C" d="M144.553,192.75c0.409,2.409-1.826,2.174-1,5c-3.04-0.96-3.983-4.017-7-5
		C137.94,188.394,141.72,192.651,144.553,192.75z"/>
	<path fill="#40883C" d="M190.553,214.75c-2.391-1.942-9.541,0.874-9-4C184.873,211.764,190.11,210.86,190.553,214.75z"/>
	<path fill="#40883C" d="M434.553,301.75c2.629,0.297,0.787-3.879,4-3c0.441,3.775-1.973,4.694-3,7c-1.086-0.246-0.68-1.987-2-2
		C433.389,302.587,433.774,301.971,434.553,301.75z"/>
	<path fill="#40883C" d="M276.553,453.75c2.297-2.92,7.066-3.977,3-8c7.584-6.754,23.715-10.279,29-16c4.475,0.033-2.189,2.941,0,7
		C298.599,443.13,295.295,456.162,276.553,453.75z"/>
	<path fill="#40883C" d="M303.553,11.75c95.838,32.83,165.33,105.998,164,236c-1.211-6.457-2.16-13.173-4-19
		c-2.008-0.34-3.129,0.205-3,2c-2.078-4.922-5.537-8.463-8-13c-14.514,17.309-21.4,48.063-17,76c-2.029,3.639-5.248,6.086-7,10
		c-5.131-15.535-15.293-26.041-18-44c-13.736,0.072-19.477-7.855-25-16c-12.279,3.826-35.498,16.844-44,1
		c-3.047,0.621-1.955,5.379-5,6c-14.834,1.168-24.654-2.679-27-14c-3.295,2.039-7.014,3.654-10,6c2.878,8.123,5.652,16.348,16,17
		c1.232,4.435,0.787,10.547,5,12c9.807-0.192,15.293-4.707,18-12c3.223,6.777,12.361,7.64,19,11c-2.66,14.34-12.084,21.916-17,34
		c-8.309,1.025-12.32,6.346-15,13c-15.66,3.006-23.799,13.535-39,17c-4.237-2.763-6.319-7.681-6-15c-2.372-6.961-10.637-8.028-11-17
		c-10.451-2.215-11.805-13.528-15-23c-4.52-3.23-8.426-9.736-13-16c-2.896-3.963-6.779-9.598-7-12c-0.768-8.334,6.975-16.254,6-27
		c0.306-2.031-2.889,0.205-3,1c-0.188-4.208,1.609-15.042,3-21c-8.138,4.247-15.617,0.89-23,1c-2.159,0.032-5.823,2.348-8,2
		c-13.903-2.221-9.311-17.124-17-27c-6.41-0.41-10.131,1.869-13,5c-0.971,8.971,7.692,8.308,9,15c-3.872,0.539-4.118-2.549-7-3
		c-3.421-0.087-0.579,6.087-4,6c-3.732-5.203-8.221-12.098-9-19c-0.33-2.926,1.64-6.168,1-9c-2.351-10.403-14.258-16.266-18-27
		c-4.976,0.024-5.229,4.771-8,7c1.084,11.916,9.885,16.115,14,25c-4.168,2.235-1.574,10.09-7,13c5.93-9.242-3.853-20.735-12-25
		c-0.564-4.564,1.772-6.228,1-11c-0.319-2.348-3.095-2.238-4-4c-4.192,1.141-8.57,2.096-11,5c-2.14-2.193-4.855-3.811-10-3
		c-8.463,9.203-21.635,13.699-28,25c-4.973,0.306-9.175-0.158-13-1c-10.629-13.078,6.72-21.696,9-36c5.077,2.256,9.787,4.88,14,8
		c9.111-3.465,14.696-15.723,11-26c16.007,0.34,23.558-7.775,32-15c8.079,0.746,12.2-2.467,16-6c1.485,7.407,10.384,1.402,12,8
		c5.982-2.018,12.28-3.72,21-3c4.035-1.299,2.22-8.446,5-11c5.064,1.484,13.231-2.386,11-8c6.082,0.082,12.597,0.597,15-3
		c-0.765-7.235-13.243-2.757-20-4c-1.21-12.21,10.841-11.159,14-19c-4.787-8.983-10.45,1.172-15,4c-6.918,4.3-17.403,4.207-12,19
		c-2.74,2.26-6.371,3.629-10,5c0,2,0,4,0,6c-3.977-0.31-5.023,2.31-9,2c-0.372-6.706,2.145-10.522,2-17
		c-4.365,0.302-6.823,2.51-10,4c-0.962-11.447,9.786-11.949,19-18c6.202-4.073,10.707-11.426,16-14c5.136-2.497,11.747-2.528,15-8
		c15.244-0.577,23.036,6.298,34,10c-2.986,6.589-10.411-0.156-15-1c-5.877,4.728,3.801,8.924,3,15c11.224,0.891,10.515-10.152,20-11
		c0.318-2.348,1.58-3.753,1-7c8.074,4.52,12.105-4.605,23-3c3.135-0.691,1.304-2.667,1-5c5.006-0.673,7.74,0.926,12,1
		c2.681-3.752-7.938-7.085-6-10c4.826-0.173,9.551-0.449,11-4c-0.815-6.518-6.287-8.38-6-16c9.015,0.318,12.693,5.973,23,5
		C311.354,15.283,306.465,14.505,303.553,11.75z M229.553,161.75c-3.925-3.041-3.265-5.803-3-9c-4.445,0.445-5.292-2.708-8-4
		c-7.519,7.172-18.063,19.642-13,33c13.98-2.096,28.16-6.363,39,1c8.619-2.384,21.248,0.129,17-13
		C250.231,167.429,242.69,153.312,229.553,161.75z M232.553,153.75c1.154,5.07,6.135,3.692,11,3c-0.826-2.826,1.408-2.591,1-5
		C240.304,147.612,236.913,152.498,232.553,153.75z M284.553,170.75c6.429,1.238,7.402,7.93,13,10c-2.555,4.934-0.198,12.589,1,17
		c6.727,3.325,15.885,4.311,19-3c-2.438-10.562-10.988-15.01-10-29c-12.158,0.825-11.948-10.719-19-15
		C280.586,153.001,285.506,162.062,284.553,170.75z"/>
	<path fill="#40883C" d="M131.553,82.75c-4.71,6.261-2.306,26.295-8,34c-3.977,0.31-5.023-2.31-9-2
		c4.168-10.089,13.242-15.698,10-28C125.734,84.265,130.883,85.747,131.553,82.75z"/>
	<path fill="#413F8B" d="M229.553,59.75c3.839,1.161,6.265,3.735,12,3c-0.98,4.02-5.526,4.474-8,7
		C234.002,64.634,229.694,64.276,229.553,59.75z"/>
	<path fill="#413F8B" d="M159.553,94.75c3.282,1.771-1.166,4.052-2,5C154.76,98.467,158.78,95.759,159.553,94.75z"/>
	<path fill="#413F8B" d="M218.553,150.75c2.305,1.028,3.225,3.442,7,3c-3.467,4.707,2.584,7.002,4,10c12.313-9.219,20.338,5.3,31,7
		c0,2.333,0,4.667,0,7c-4.905,3.308-10.936,0.173-16,4c-8.543-7.828-26.022-4.356-37-1
		C201.346,171.252,211.691,156.708,218.553,150.75z"/>
	<path fill="#413F8B" d="M242.553,155.75c-4.178-0.226-4.723,1.626-8,0c-0.092-3.759,5.011-2.323,6-5
		C242.741,150.897,242.702,153.27,242.553,155.75z"/>
	<path fill="#413F8B" d="M231.553,238.75c0.779-0.221,1.163-0.836,1-2c0.19-0.81,1.003-0.997,1-2c1.449,1.218,1.34,3.994,4,4
		c-0.777,2.224-2.102,3.899-2,7C233.312,244.326,233.645,240.326,231.553,238.75z"/>
	<path fill="#413F8B" d="M231.553,398.75c0.483,3.15-3.069,2.264-2,6c-2.667,0-5.333,0-8,0
		C219.823,397.687,226.144,398.673,231.553,398.75z"/>
	<path fill="#413F8B" d="M247.553,471.75c-6.348,1.664-19.652,1.664-26,0C230.22,471.75,238.886,471.75,247.553,471.75z"/>
	<path fill="#413F8B" d="M433.553,303.75c0,1.334,0,2.668,0,4c3.656-0.342,4.576-3.424,6-6c-7.713-23.213-0.314-60.815,12-79
		c5.174,1.827,5.588,8.412,7,14c2.688,0.688,1.934-2.067,3-3c9.949,41.916-3.195,78.387-21,112
		c-41.223,77.828-129.492,136.49-245,121c17.097-0.082,32.095-1.682,46-7c0.488-3.156-1.803-3.531-1-7
		c9.269-2.73,16.201-7.799,25-11c3.404-10.443-4.104-17.623-5-27c21.484-25.85,58.594-36.074,64-78
		c-13.127-1.391-24.088,7.861-36,11c-3.928-1.563-7.896-5.602-6-10c-9.688-6.313-22.833-9.166-24-24
		c-13.195-1.472-7.11-22.223-18-26c0.074-11.84-9.33-17.248-11-30c9.402-0.836,13.059,11.201,17,19c9.6,4.066,8.14,19.194,15,26
		c1.667,0,3.333,0,5,0c1.369,8.299,6.97,12.363,12,17c-0.969,8.637,3.007,12.328,5,18c17.906-3.094,28.088-13.91,44-19
		c3.672-0.66,2.455-6.211,5-8c15.725-6.941,21.611-23.722,28-40c-3.295-5.271-8.441-6.031-15-6c-3.029-4.209-3.785-8.699-3-12
		c-6.25,2.426-8.943,17.051-21,17c-2.646-2.354-2.23-7.77-4-11c-9.613-0.387-10.637-9.363-16-14c2.085-1.582,4.072-3.26,7-4
		c1.256,10.664,25.021,18.879,32,8c3.777,0.223,2.857,5.143,6,6c16.686,1.687,25.957-4.043,37-8c5.822,6.185,13.42,15.903,23,15
		c5.893,15.441,14.934,27.733,19,45c5.135,1.096,6.293-6.987,9-5C433.774,301.971,433.389,302.587,433.553,303.75z M281.553,440.75
		c-3.209,5.557-1.9,9.902-7,14c23.352,2.02,30.301-12.365,38-26c-3.102,0.34-4.777-2.314-7,0
		C300.549,435.748,291.773,438.97,281.553,440.75z"/>
	<path fill="#413F8B" d="M212.553,419.75c-1.875,1.158-6.42-3.541-5-9C209.007,413.962,209.273,418.365,212.553,419.75z"/>
	<path fill="#40883C" d="M230.553,211.75c4.055,1.137,0.189,6.099-1,8c-3.658,0.658-3.836-2.164-7-2
		C221.647,212.178,229.608,215.472,230.553,211.75z"/>
</g>
<path fill-rule="evenodd" clip-rule="evenodd" d="M-23.58,506.043c6.339,9.332,11.842,28.156,20,39c0.483,3.15-3.068,2.266-2,6
	c4.609,12.725,18.828,15.84,23,29c-7.168,0.17-10.43-3.57-16-5c-7.745,3.256-9.97,12.031-15,18c-2.645-14.723,3.462-37.256-9-46
	c-2.006-0.34-3.129,0.205-3,2c-3.339-3.326-6.01-7.322-8-12c-14.36-9.145-25.734-21.68-38-33c-12.076-11.145-25.848-20.9-36-34
	c21.767-8.38,40.744,0.408,58,11c13.09,8.035,28.611,15.031,29,28C-22.019,508.485-23.019,507.485-23.58,506.043z"/>
<path fill-rule="evenodd" clip-rule="evenodd" d="M-159.58,479.043c-0.161,1.172-1.822,0.844-3,1c16.025,1.975,26.129,9.871,42,12
	c3.957,14.15,29.198,1.967,40,8c-3.315,5.018-11.117,5.551-16,9c-0.979,9.646,2.576,14.758,3,23c-13.151-8.182-17.465-25.201-39-25
	c-4.615,0.678,1.531,3.324-1,4c-27.638-0.934-66.089,0.318-95,4c-6.599,0.842-13.871,5.266-19,0c6.834-20.873,40.322-33.408,66-39
	C-172.697,474.11-164.623,474.788-159.58,479.043z"/>
<path fill-rule="evenodd" clip-rule="evenodd" d="M-170.579,516.043c-0.277,7.057-4.812,9.855-7,15c1.585,8.758,14.128,11.861,15,18
	c-17.647-2.189-34.319-8.963-46,3c-0.368,1.701,0.78,1.887,2,2c-17.88,9.938-33.486,25.875-50,39
	c-13.343,10.607-24.482,23.494-39,32c-6.862-40.262,24.06-59.889,42-82c1.506,3.205,3.604,1.146,7,1c-0.354,1.314-1.761,1.574-2,3
	c11.093-7.24,29.066-7.6,40-15c3.044-0.043,3.889,2.111,6,3C-189.126,531.497-184.358,519.266-170.579,516.043z"/>
<path fill-rule="evenodd" clip-rule="evenodd" d="M-23.58,615.043c-2.422-2.438-2.647,2.428-3,5c-2.133,0.469-1.904-1.428-2-3
	c-0.494,15.506-4.906,27.096-6,42c0.549,3.883-4.316,2.35-5,5c-1.15,14.486,4.73,21.938,4,36c-6.252,1.385-7.338-10.512-13-13
	c-7.879,1.121-14.027,3.973-20,7c1.269-14.734,22.584-18.08,17-43c-0.11-3.541-3.306,2.125-3-1c-0.495-22.189-7.567-37.963-12-60
	c-1.556-7.736-2.772-16.514-5-25c-2.586-9.857-9.472-19.5-5-26C-43.602,549.067-34.443,582.909-23.58,615.043z"/>
<path fill-rule="evenodd" clip-rule="evenodd" d="M-326.579,565.043c5.962,2.705,5.88,11.455,10,16c7.957-0.375,14.707-1.959,21-4
	c-3.154,13.518-25.535,16.463-23,39c-0.879,4.658,3.296-0.674,3,2c-3.557,34.178,7.192,80.326,5,113
	c-29.253-12.08-35.716-46.951-41-83c2.091,2.186,3.049-1.189,3-4c2.134-0.467,1.905,1.43,2,3c2.566-15.432,9.951-26.049,12-42
	c2.784-1.215,5.512-2.486,7-5C-326.565,589.637-328.847,576.288-326.579,565.043z"/>
<path fill-rule="evenodd" clip-rule="evenodd" d="M45.42,676.043c-3.082-3.271-3.156,7.809-6,2c-0.996,16.338-9.945,24.721-11,41
	c-14.141,3.949-3.643,26.369-8,40c-6.971-2.027-5.52-12.479-11-16c-7.812,0.855-14.27,3.064-22,4c7.883-13.449,26.127-16.539,25-39
	c0.881-4.656-3.296,0.676-3-2c1.65-33.725-4.096-75.367-7-111c0.807-0.859,2.74-0.594,3-2
	C32.848,606.618,40.09,640.375,45.42,676.043z"/>
<path fill-rule="evenodd" clip-rule="evenodd" d="M-47.58,777.043c-13.723,7.51-28.628,18.389-46,19
	c-11.035,5.633-15.998,17.336-27,23c-2.971-5.994,3.803-10.846,4-17c-3.354-6.979-11.451-9.215-17-14
	c15.217-3.215,35.608,3.102,45-9c0.341-2.006-0.204-3.127-2-3c2.781-3.885,7.433-5.9,12-8c14.244-21.227,33.405-37.404,50-57
	c5.055-5.967,9.232-15.053,18-17c9.844,24.746-9.965,57.055-22,75c-4.752,7.088-11.857,13.35-17,10
	C-48.689,778.602-47.791,778.167-47.58,777.043z"/>
<path fill-rule="evenodd" clip-rule="evenodd" d="M-255.579,812.043c13.519,7.816,16.843,25.824,39,25c4.658,0.881-0.674-3.295,2-3
	c33.907,3.156,79.954-7.471,113-5c-12.467,28.867-47.324,35.342-83,41c3.272-3.082-7.809-3.156-2-6
	c-16.108-1.225-24.873-9.793-41-11c-3.434-14.941-28.361-2.262-40-9c3.208-5.457,12.384-4.949,16-10
	C-251.822,825.62-254.747,819.879-255.579,812.043z"/>
<path fill-rule="evenodd" clip-rule="evenodd" d="M-313.579,494.043c0.911,2.117,4.019-1.887,7-1c-0.443,0.891-0.878,1.789-2,2
	c11.919-4.313,31.392-18.494,45-18c12.455-4.545,16.278-17.72,28-22.999c3.034,6.713-4.568,10.396-4,15.999
	c0.824,8.133,10.919,9.602,17,15c-16.518,3.521-37.735-3.398-46,11c0.162,1.172,1.823,0.844,3,1c-14.538,10.008-25.21,24.979-39,40
	c-9.811,10.688-20.92,21.08-29,31c-3.509,4.309-4.629,11.492-12,11C-356.584,541.655-326.411,510.735-313.579,494.043z"/>
<path fill-rule="evenodd" clip-rule="evenodd" d="M-345.579,773.043c0.19-1.135,1.003-0.555,1,0c2.537-1.33-1.467-4.438-1-7
	c1.313,0.354,1.573,1.762,3,2c-8.463-10.869-11.351-27.314-20-38c-0.261-2.926,2.261-3.072,2-6c-4.61-12.723-18.465-16.201-23-29
	c7.572-0.57,10.199,3.803,16,5c7.746-3.254,9.97-12.029,15-18c2.342,15.953-2.884,36.596,9,46c2.007,0.342,3.129-0.203,3-2
	c24.261,29.406,56.862,50.473,82,79C-295.683,817.012-324.131,787.911-345.579,773.043z"/>
<path fill-rule="evenodd" clip-rule="evenodd" d="M-241.579,789.043c-0.306-2.029,2.889,0.205,3,1c-7.887-8.115-16.586-24.078-27-33
	c2.201-17.922-22.458-16.592-28-30c6.705-0.705,10.972,1.029,17,1c5.744-4.256,6.501-13.498,10-20c6.312,14.023,3.866,36.803,19,42
	c3.236,1.236,0.764-3.234,4-2c12.591,13.322,35.578,23.338,53,34c14.1,8.631,30.369,14.021,42,25c-27.068,19.189-69.196-0.963-91-12
	C-236.108,795.415-239.882,791.708-241.579,789.043z"/>
<path fill-rule="evenodd" clip-rule="evenodd" d="M123.053,198.265c-0.162,1.172-1.822,0.844-3,1c16.025,1.975,26.129,9.871,42,12
	c3.957,14.151,29.197,1.967,40,8c-3.316,5.018-11.117,5.551-16,9c-0.979,9.646,2.576,14.757,3,22.999
	c-13.152-8.182-17.465-25.2-39-24.999c-4.615,0.678,1.531,3.324-1,4c-27.639-0.934-66.089,0.318-95,3.999
	c-6.599,0.842-13.871,5.266-19,0c6.834-20.873,40.322-33.408,66-39C109.935,193.331,118.01,194.009,123.053,198.265z"/>
<path fill-rule="evenodd" clip-rule="evenodd" d="M200.053,238.78c-0.161,1.172-1.822,0.844-3,1c16.025,1.975,26.129,9.871,42,12
	c3.957,14.15,29.198,1.967,40,8c-3.315,5.018-11.117,5.551-16,9c-0.979,9.646,2.576,14.758,3,23c-13.151-8.182-17.465-25.201-39-25
	c-4.615,0.678,1.531,3.324-1,4c-27.638-0.934-66.089,0.318-95,4c-6.599,0.842-13.871,5.266-19,0c6.834-20.873,40.322-33.408,66-39
	C186.936,233.846,195.01,234.524,200.053,238.78z"/>
<path fill-rule="evenodd" clip-rule="evenodd" d="M289.515,194.821c-0.161,1.172-1.822,0.844-3,1c16.025,1.975,26.129,9.871,42,12
	c3.957,14.15,29.198,1.967,40,8c-3.315,5.018-11.117,5.551-16,9c-0.979,9.646,2.576,14.758,3,23c-13.151-8.182-17.465-25.202-39-25
	c-4.615,0.678,1.531,3.324-1,4c-27.638-0.934-66.089,0.318-95,4c-6.599,0.842-13.871,5.266-19,0c6.834-20.873,40.322-33.408,66-39
	C276.397,189.888,284.472,190.565,289.515,194.821z"/>
</svg>
